PathFileType	4	(X/Y/Z)	Patient5_TMGait_0pt45_1_left_12.trc.trc
DataRate	CameraRate	NumFrames	NumMarkers	Units	OrigDataRate	OrigDataStartFrame	OrigNumFrames
62.500000000000	62.500000000000	4	32	mm	62.500000000000	36	       141
Frame#	Time	R.ASIS			L.ASIS			Chest			R.Shoulder			Neck			L.Shoulder			L.Elbow			L.Wrist			R.Elbow			R.Wrist			L.Thigh.Superior			L.Thigh.Lateral			L.Thigh.Inferior			L.Patella			L.Shank.Superior			L.Shank.Lateral			L.Shank.Inferior			L.Heel			L.Midfoot.Lateral			L.Midfoot.Superior			L.Toe			R.Thigh.Superior			R.Thigh.Lateral			R.Thigh.Inferior			R.Patella			R.Shank.Superior			R.Shank.Lateral			R.Shank.Inferior			R.Heel			R.Midfoot.Lateral			R.Midfoot.Superior			R.Toe			
		X1	Y1	Z1	X2	Y2	Z2	X3	Y3	Z3	X4	Y4	Z4	X5	Y5	Z5	X6	Y6	Z6	X7	Y7	Z7	X8	Y8	Z8	X9	Y9	Z9	X10	Y10	Z10	X11	Y11	Z11	X12	Y12	Z12	X13	Y13	Z13	X14	Y14	Z14	X15	Y15	Z15	X16	Y16	Z16	X17	Y17	Z17	X18	Y18	Z18	X19	Y19	Z19	X20	Y20	Z20	X21	Y21	Z21	X22	Y22	Z22	X23	Y23	Z23	X24	Y24	Z24	X25	Y25	Z25	X26	Y26	Z26	X27	Y27	Z27	X28	Y28	Z28	X29	Y29	Z29	X30	Y30	Z30	X31	Y31	Z31	X32	Y32	Z32	

36	19.170000000000	1057.243733884235	982.021382017141	568.336805536168	1085.373737825757	957.519949773979	329.279114203656	1158.303878390336	1432.940230458368	443.890978809794	1044.877580926053	1500.827499560453	598.969022093833	1037.571959879955	1557.922309759796	411.572782901019	1116.436388726554	1498.120554795732	240.509072182825	1034.657969825362	1184.701283347780	107.587882192760	1131.771554224805	912.879759668185	140.466355297516	958.549764595813	1183.404389743379	740.980893027156	1187.506193827441	1009.917192789299	694.783807012614	1139.142160165356	756.857200538636	322.892250468347	1087.806880176044	673.425042198194	277.677340607876	1162.550982378222	634.679491232838	354.537310936812	1185.965442574971	519.809750165927	366.657618609435	1149.548357004136	409.221346130794	379.445705817066	1105.323107473127	334.513554407372	291.842942757884	1128.908465613051	283.032183709155	381.730926735239	1017.486386820466	49.641462713267	370.084299594878	1107.845503942732	27.460921477985	311.360874387732	1203.180230437506	89.669056436501	360.155569901298	1311.499122698834	44.811813853695	364.847681965142	1050.083397756603	747.047680014154	602.035804142040	949.360962228553	679.876357595604	647.136980278381	1034.603668728608	613.381105822392	592.296550020747	1013.997164518425	509.321344235373	623.916963063471	929.465363986982	421.919874614991	577.425816464113	827.691967707654	394.091023755624	650.542392046675	849.192575455892	306.464959380756	571.175585778366	634.966709759341	162.021868029311	528.242949960414	689.993222862057	90.625273456262	593.114308650400	813.213797280930	105.294624132255	579.806785969073	886.663150631537	40.993243756603	566.927686473873	
37	19.186000000000	1059.372337121778	984.834875275018	565.451271546898	1088.614389557652	958.628418239979	327.160995818671	1160.390476967717	1434.645325291835	442.669724026942	1044.325439049032	1502.707413046886	595.636099377317	1040.332114451234	1559.679980104986	408.163665357191	1122.462781657831	1499.874912477431	238.697506194471	1045.148579551372	1186.265671254989	103.647616314719	1144.013130543751	915.445104179438	138.598758989537	955.203920462616	1185.559380472595	736.594684994438	1183.991961643364	1011.524903774606	692.021397695956	1139.902129937635	756.566128989622	321.885054896702	1088.024485970057	673.693857844759	275.853107594663	1161.246040360154	634.005637909850	353.552026071530	1182.998436478762	518.826920304369	365.761539498776	1145.635621734953	408.722369902122	378.596024480948	1101.253672127324	334.081470741294	291.060368693920	1123.711179409014	282.795050314991	381.182528800205	1010.555578216302	49.618566900594	369.894026344415	1100.932371837391	27.476075338558	311.242328748391	1196.130134106630	89.705376770606	360.159114306490	1304.569497371608	44.983500663570	364.719511724329	1056.551971459682	751.173032444888	603.170413180674	957.904838243383	682.128821784532	648.729149082747	1045.615037365333	616.863176098277	595.634299348184	1026.247741571906	511.789392663403	627.858490451854	939.970878808819	424.662140670810	581.147010511403	837.388225896975	399.224469967104	654.601485029961	856.004615801251	311.524715887103	574.417510735414	638.172916864690	177.798453579013	532.015410479948	688.859981837481	102.043318738485	595.297117262372	812.859477576655	110.040912555631	582.262959658166	882.063990920628	40.417567235841	567.743219209504	
38	19.202000000000	1061.085816073647	987.444196428624	562.536132875646	1091.415613462758	959.585562123367	325.072717156793	1162.087882240484	1436.082679729261	441.496211157800	1043.503397310240	1504.263790241655	592.396929138443	1042.756648009795	1561.202262160717	404.965561298033	1127.957129839744	1501.381604664487	237.030186486660	1055.404655368424	1187.532328885839	99.993044310334	1155.994754893292	917.693178473889	136.836724884542	952.011457746485	1187.339126699910	732.368019507108	1180.400194083991	1012.554970331098	689.379578534225	1140.315300411229	756.333574739988	321.001788039232	1087.966276380491	673.972449629500	274.107184047330	1159.733986443092	633.336592210435	352.540154958404	1179.832200670735	517.853530875878	364.753924978867	1141.560617921739	408.217674600064	377.674748330006	1096.938889164803	333.654146243893	290.230547286689	1118.400655625666	282.548496940581	380.566092928912	1003.514788642735	49.647995464461	369.701906924706	1093.911781347786	27.456357871916	311.140588784962	1189.031573335302	89.642060861727	360.173648067306	1297.548895206012	45.002946939680	364.677164406495	1062.642459754660	755.267023633732	604.005162000997	966.241360065731	684.508169102173	650.293259417202	1056.132939900551	620.521096306678	598.522317477746	1038.138817787202	514.568567968889	631.392631780250	950.261813057137	427.735874419349	584.690385955608	847.188827254523	404.533963541786	658.728755222170	862.953344817355	316.811611483235	577.677487189417	642.232102967260	193.697817118338	536.327852382232	688.383511965791	113.790900778043	597.854205477408	812.826309899897	115.121622947425	584.834121493858	877.468366553494	39.724087845209	568.506381152858	
39	19.218000000000	1062.349021632251	989.891611908836	559.615723066437	1093.794047735604	960.432255083314	322.984611901728	1163.418713474863	1437.330178953389	440.331360963424	1042.484742654494	1505.576148501164	589.267254454092	1044.865241659305	1562.561132887197	401.973599673771	1132.869503341782	1502.721323891936	235.475499511833	1065.300814665546	1188.560268313480	96.695820177375	1167.664160860651	919.690879416919	135.168895618202	948.868072166361	1188.779985012176	728.159347868644	1176.703090095305	1013.045064727775	686.956323802333	1140.420193701613	756.085978960131	319.991470919789	1087.511391269650	674.220805107949	272.399847067631	1158.032327879220	632.657946367942	351.375912728114	1176.504514474953	516.923182525422	363.613872455731	1137.352446379533	407.735749250056	376.700376742984	1092.390765402304	333.268278810651	289.376251382172	1113.001409000060	282.317966922275	379.905285878135	996.374323071644	49.713025032105	369.512723777349	1086.787854743344	27.418677430756	311.048514930426	1181.883753365417	89.516998561829	360.174994466393	1290.443269378702	44.906504086419	364.667805952826	1068.244324639392	759.302730276222	604.452103428655	974.169180204775	687.076205683136	651.710833960426	1065.879224921063	624.328833795348	600.809974903268	1049.365205521681	517.658083130942	634.409507629330	959.988819647588	431.091115232920	587.942224848140	856.745203991914	409.950589039845	662.811265899875	869.767583380232	322.192245529853	580.917787479855	646.827992749069	209.178857371481	541.138593354400	688.476229914909	125.423727249802	600.818950744623	813.062584260024	120.305447885111	587.554690543544	872.940969649940	38.991113015447	569.282605107609	
